# xmcd
#
# Track frame offsets:
#	150
#	14485
#	27275
#	40311
#	52332
#	64702
#	75821
#	88532
#	101738
#	114453
#	128419
#	143475
#	153959
#	164555
#	177225
#	188292
#	201697
#	212229
#
# Disc length: 3399
#
# Revision: 3
# Processed by: cddbd v1.5.1PL0 Copyright (c) Steve Scherf et al.
# Submitted via: VisiTrax 2.9.9.202 - For more info visit www.synapsa.com
# Normalized: r2:DSETVAR1
#
DISCID=ef0d4512
DTITLE=Various Artist - Blues collection vol. 3 After Midnite - CD 1
DYEAR=2001
DGENRE=Blues
TTITLE0=Lowell Fulson - Three O'Clock Blues
TTITLE1=John Lee Hooker - Long Long Way From Home
TTITLE2=T Bone Walker - My Baby Left Me
TTITLE3=Julia Lee and Her Boy Friend - It Comes In Like A lion
TTITLE4=Smokey Hogg - Oo Oo Wee
TTITLE5=Joe Turner - Mad Blues
TTITLE6=Sonny Terry - Early Morning Blues
TTITLE7=Ella Mae Morse - Solio Patato Salad
TTITLE8=Amos Milburn - After Midnite
TTITLE9=Floyd Dixon - Lond Distance Telephone Blues
TTITLE10=Jay McShann's Kensas City Stompers - Walking Blues
TTITLE11=Bus Moten and His Men - Baby You Messed Up
TTITLE12=Walter Brown - I'm Gonna Get Married
TTITLE13=John Lee Hooker - Moon Is Rising
TTITLE14=Amos Milburn - Blues At Sundown
TTITLE15=Julia Lee and Her Boy Friend - Don't Come To Soon
TTITLE16=Jimmy Reed - Baby What You Want Me To Do
TTITLE17=Joe Turner - The Things I Used To Do
EXTD=YEAR: 2001 ID3G: 0
EXTT0=
EXTT1=
EXTT2=
EXTT3=
EXTT4=
EXTT5=
EXTT6=
EXTT7=
EXTT8=
EXTT9=
EXTT10=
EXTT11=
EXTT12=
EXTT13=
EXTT14=
EXTT15=
EXTT16=
EXTT17=
PLAYORDER=
